<?xml version="1.0" encoding="UTF-8"?>
<svg id="a" xmlns="http://www.w3.org/2000/svg" xmlns:xlink="http://www.w3.org/1999/xlink" viewBox="0 0 89.17 89.41">
  <defs>
    <style>
      .cls-1 {
        fill: url(#linear-gradient);
      }

      .cls-1, .cls-2, .cls-3, .cls-4, .cls-5, .cls-6, .cls-7, .cls-8 {
        stroke-width: 0px;
      }

      .cls-2 {
        fill: url(#linear-gradient-6);
      }

      .cls-3 {
        fill: url(#linear-gradient-5);
      }

      .cls-4 {
        fill: url(#linear-gradient-2);
      }

      .cls-5 {
        fill: url(#linear-gradient-7);
      }

      .cls-6 {
        fill: url(#linear-gradient-3);
      }

      .cls-7 {
        fill: url(#linear-gradient-8);
      }

      .cls-8 {
        fill: url(#linear-gradient-4);
      }
    </style>
    <linearGradient id="linear-gradient" x1="34.35" y1="41.27" x2="-.49" y2="50.36" gradientTransform="translate(0 91.9) scale(1 -1)" gradientUnits="userSpaceOnUse">
      <stop offset="0" stop-color="#89d3f6"/>
      <stop offset=".81" stop-color="#2d97c1"/>
    </linearGradient>
    <linearGradient id="linear-gradient-2" x1=".44" y1="42.96" x2="11.56" y2="49.4" gradientTransform="translate(0 91.9) scale(1 -1)" gradientUnits="userSpaceOnUse">
      <stop offset="0" stop-color="#89d3f6"/>
      <stop offset="1" stop-color="#2d97c1"/>
    </linearGradient>
    <linearGradient id="linear-gradient-3" x1="50.18" y1="59.38" x2="41.35" y2="92.31" gradientTransform="translate(0 91.9) scale(1 -1)" gradientUnits="userSpaceOnUse">
      <stop offset="0" stop-color="#b4d234"/>
      <stop offset="1" stop-color="#4bb649"/>
    </linearGradient>
    <linearGradient id="linear-gradient-4" x1="48.83" y1="91.45" x2="42.37" y2="80.32" xlink:href="#linear-gradient-3"/>
    <linearGradient id="linear-gradient-5" x1="43.77" y1="11.31" x2="49.6" y2="36.23" gradientTransform="translate(0 91.9) scale(1 -1)" gradientUnits="userSpaceOnUse">
      <stop offset="0" stop-color="#943b95"/>
      <stop offset="1" stop-color="#df7bb0"/>
    </linearGradient>
    <linearGradient id="linear-gradient-6" x1="47.1" y1="16.03" x2="40.52" y2="1.26" xlink:href="#linear-gradient-5"/>
    <linearGradient id="linear-gradient-7" x1="98.64" y1="48.99" x2="49.5" y2="45.06" gradientTransform="translate(0 91.9) scale(1 -1)" gradientUnits="userSpaceOnUse">
      <stop offset="0" stop-color="#ef5023"/>
      <stop offset="1" stop-color="#ffcc02"/>
    </linearGradient>
    <linearGradient id="linear-gradient-8" x1="74.19" y1="45.51" x2="88.58" y2="49.12" xlink:href="#linear-gradient-7"/>
  </defs>
  <path class="cls-1" d="M21.92,45.73l-14.2,14.24c-2.3,2.31-2.3,6.05,0,8.35,2.3,2.31,6.03,2.31,8.33,0l16.67-16.71c5.09-7.17.68-13.6-2.16-15.92l-14.43-14.47c-2.28-2.29-5.98-2.29-8.27,0-2.28,2.29-2.28,6,0,8.29l14.07,14.11c.58.58.58,1.53,0,2.11Z"/>
  <path class="cls-4" d="M7.37,52.32c4.07,0,7.38-3.32,7.38-7.4,0-4.08-3.29-7.39-7.37-7.39C3.31,37.53,0,40.85,0,44.93c0,4.08,3.29,7.39,7.37,7.39Z"/>
  <path class="cls-6" d="M45.61,21.98l14.2-14.24c2.3-2.31,6.03-2.31,8.33,0,2.3,2.31,2.3,6.05,0,8.35l-16.67,16.71c-7.15,5.11-13.56.68-15.87-2.17l-14.43-14.47c-2.28-2.29-2.28-6,0-8.29,2.28-2.29,5.98-2.29,8.27,0l14.07,14.11c.58.58,1.53.58,2.11,0Z"/>
  <path class="cls-8" d="M52.18,7.39c0,4.08-3.31,7.4-7.38,7.4-4.07,0-7.37-3.3-7.37-7.39C37.44,3.32,40.74,0,44.81,0c4.07,0,7.37,3.3,7.37,7.39Z"/>
  <path class="cls-3" d="M43.56,67.43l-14.2,14.24c-2.3,2.31-6.03,2.31-8.33,0-2.3-2.31-2.3-6.05,0-8.35l16.67-16.71c7.15-5.11,13.56-.68,15.87,2.17l14.43,14.47c2.28,2.29,2.28,6,0,8.29-2.28,2.29-5.98,2.29-8.27,0l-14.07-14.11c-.58-.58-1.53-.58-2.11,0Z"/>
  <path class="cls-2" d="M36.99,82.02c0-4.08,3.31-7.4,7.38-7.4,4.07,0,7.37,3.3,7.37,7.39,0,4.08-3.31,7.4-7.38,7.4-4.07,0-7.37-3.3-7.37-7.39Z"/>
  <path class="cls-5" d="M67.25,43.67l14.2-14.24c2.3-2.31,2.3-6.05,0-8.35-2.3-2.31-6.03-2.31-8.33,0l-16.67,16.71c-5.09,7.17-.68,13.6,2.16,15.92l14.43,14.47c2.28,2.29,5.98,2.29,8.27,0,2.28-2.29,2.28-6,0-8.29l-14.07-14.11c-.58-.58-.58-1.53,0-2.11Z"/>
  <path class="cls-7" d="M81.8,37.09c-4.07,0-7.38,3.32-7.38,7.4s3.29,7.39,7.37,7.39c4.07,0,7.38-3.32,7.38-7.4,0-4.08-3.29-7.39-7.37-7.39Z"/>
</svg>